<?xml version="1.0" encoding="UTF-8" standalone="no"?>
<svg
   xmlns:dc="http://purl.org/dc/elements/1.1/"
   xmlns:cc="http://creativecommons.org/ns#"
   xmlns:rdf="http://www.w3.org/1999/02/22-rdf-syntax-ns#"
   xmlns:svg="http://www.w3.org/2000/svg"
   xmlns="http://www.w3.org/2000/svg"
   id="svg8"
   version="1.1"
   viewBox="0 0 55.792088 47.159157"
   height="47.159157mm"
   width="55.792088mm">
  <defs
     id="defs2" />
  <metadata
     id="metadata5">
    <rdf:RDF>
      <cc:Work
         rdf:about="">
        <dc:format>image/svg+xml</dc:format>
        <dc:type
           rdf:resource="http://purl.org/dc/dcmitype/StillImage" />
        <dc:title></dc:title>
      </cc:Work>
    </rdf:RDF>
  </metadata>
  <g
     transform="translate(152.0826,-202.90991)"
     id="layer1">
    <path
       id="path826"
       d="m -133.42924,249.72023 c -0.35923,-0.93613 1.54946,-3.40385 3.78993,-4.89998 5.15818,-3.4445 12.21047,-3.38187 16.13125,0.14326 1.13454,1.02004 2.11847,2.33433 2.11847,2.82975 0,0.2095 -0.8158,0.95808 -1.04411,0.95808 -0.11691,0 -0.97308,-0.75308 -1.90261,-1.6735 -1.18601,-1.1744 -2.08362,-1.80987 -3.00969,-2.13075 -4.69229,-1.62585 -10.39564,-0.077 -13.35817,3.6278 -0.90082,1.1265 -1.36084,1.49019 -1.88992,1.49414 -0.38462,0.003 -0.76044,-0.15409 -0.83515,-0.3488 z m -18.49134,-37.42851 c 0.54127,-0.94892 4.20722,-3.5331 7.17381,-5.05694 3.22723,-1.65771 7.31155,-3.21571 10.20614,-3.89322 2.68113,-0.41927 3.96115,-0.89234 4.48217,0.48169 l -0.24884,1.10554 -2.41514,0.4569 c -6.63654,1.25552 -15.6644,5.45591 -18.81574,8.75439 -0.52189,-0.0784 -0.70901,-0.74365 -0.3824,-1.84836 z m 55.630068,2.39322 -1.37733,-1.23833 c -3.563718,-3.20408 -10.876868,-6.34575 -17.690288,-7.5996 -3.23182,-0.59474 -3.70417,-0.86577 -3.70417,-2.12541 0,-0.67366 0.0871,-0.74318 0.93066,-0.74318 1.48776,0 5.76278,1.01457 9.04763,2.14724 4.92917,1.69965 9.665238,4.28476 11.846958,6.46648 l 0.91669,0.91669 z m -40.978018,12.62836 c -1.60292,-0.97727 -2.08757,-3.21618 -1.03447,-4.77888 0.77365,-1.14802 1.61519,-1.56317 3.10091,-1.52974 0.65484,0.0147 0.9525,0.0853 0.66146,0.15686 -1.25124,0.30756 -1.6586,1.65615 -0.66146,2.1898 1.05163,0.56281 2.12112,-0.59042 1.54532,-1.66632 -0.29621,-0.55347 -0.28679,-0.5577 0.33168,-0.14889 0.3501,0.23141 0.86389,0.96527 1.14175,1.6308 0.4846,1.16068 0.48657,1.25885 0.0483,2.40647 -0.80507,2.10806 -3.19888,2.9194 -5.13348,1.7399 z m 27.01627,0.0175 c -2.90373,-1.77051 -1.70418,-6.36071 1.66223,-6.36071 2.22569,0 3.55044,1.33492 3.55044,3.57768 0,1.09584 -0.12457,1.37164 -1.0272,2.27428 -0.88022,0.88021 -1.19258,1.02706 -2.18282,1.02621 -0.67892,-5.8e-4 -1.50501,-0.21403 -2.00265,-0.51746 z m 3.20285,-4.06043 c 0.57528,-0.42066 0.47879,-1.46645 -0.17299,-1.87503 -1.03651,-0.64975 -2.09117,1.14957 -1.09904,1.87503 0.25991,0.19005 0.54612,0.34555 0.63602,0.34555 0.0899,0 0.3761,-0.1555 0.63601,-0.34555 z"
       style="fill:#000000;stroke-width:0.26458335" />
  </g>
</svg>
