<svg xmlns="http://www.w3.org/2000/svg" viewBox="0 0 15 19">
    <defs>
        <style>
            .cls-1{fill:#fff}
        </style>
    </defs>
    <path id="Shape_1_copy_11" d="M1156 706.422l-1.073-12.251a.519.519 0 0 0-.514-.478h-2.213a3.7 3.7 0 0 0-7.4 0h-2.208a.516.516 0 0 0-.513.478L1141 706.422v.046a2.685 2.685 0 0 0 2.813 2.529h9.374a2.685 2.685 0 0 0 2.813-2.529.192.192 0 0 0 0-.046zm-7.5-15.375a2.688 2.688 0 0 1 2.667 2.646h-5.335a2.688 2.688 0 0 1 2.668-2.646zm4.687 16.9h-9.374a1.658 1.658 0 0 1-1.778-1.458l1.027-11.746h1.732v1.594a.517.517 0 1 0 1.035 0v-1.594h5.339v1.594a.517.517 0 1 0 1.035 0v-1.594h1.732l1.031 11.746a1.66 1.66 0 0 1-1.779 1.461z" class="cls-1" data-name="Shape 1 copy 11" transform="translate(-1141 -689.998)"/>
</svg>
